<svg width="500" height="500" viewBox="0 0 500 500" fill="none" xmlns="http://www.w3.org/2000/svg">
  <style>
    /* Color por defecto para tema claro */
    .favicon-path {
      fill: #000000;
    }
    /* Color para tema oscuro */
    @media (prefers-color-scheme: dark) {
      .favicon-path {
        fill: #ffffff;
      }
    }
  </style>
  <path class="favicon-path" d="M79 103C79.4129 163.649 111.854 219.562 164.302 250.019C111.853 280.477 79.4115 336.392 79 397.042H129.286C129.628 338.819 171.364 289.084 228.644 278.642V397.042H278.203V279.923C332.579 292.775 371.098 341.169 371.425 397.042H421.711C421.159 336.255 388.443 280.311 335.737 250.023C388.445 219.734 421.16 163.788 421.711 103H371.425C371.096 158.872 332.577 207.263 278.203 220.115V151.368V103H129.282H98.1212H79ZM139.677 151.368H228.644V221.4C189.228 214.215 155.918 187.995 139.677 151.368Z"/>
</svg>
